<?xml version="1.0" standalone="no"?><!DOCTYPE svg PUBLIC "-//W3C//DTD SVG 1.1//EN" "http://www.w3.org/Graphics/SVG/1.1/DTD/svg11.dtd"><svg t="1557373472850" class="icon" style="" viewBox="0 0 1024 1024" version="1.1" xmlns="http://www.w3.org/2000/svg" p-id="3634" xmlns:xlink="http://www.w3.org/1999/xlink" width="200" height="200"><defs><style type="text/css"></style></defs><path d="M194.367803 466.13337l-1.663896-5.298679-1.385557-6.848988-0.942465-3.770883 0-4.770653 0-5.656837 0-5.100158 1.663896-6.099928 1.663896-6.463202 2.220574-6.770194 2.964518-7.514137 3.913123-7.877411 5.514597-7.820106 0-5.514597 0.528026-5.133927 0.886183-6.985088 2.356674-7.877411 2.191922-8.485255 1.74883-3.879354 1.964748-3.663436 2.606361-4.02057 2.828418-3.021823 0-5.520737 0-6.184863 0-7.706519 1.612731-9.984399 1.663896-11.590989 2.908236-13.920034 4.02057-14.476713 3.02694-7.928576 2.964518-8.655124 3.242857-8.042163 3.88447-8.650007 3.964288-9.484002 4.578272-8.877181 5.127787-9.42772 6.463202-9.456373 2.993171-5.40715 3.191692-4.436032 6.928806-10.013051 7.127328-9.984399 8.098445-10.234085 8.677637-10.006911 9.43386-9.848299 9.813506-10.091846 11.869329-10.926864 7.541767-6.656607 9.205663-7.15598 9.347902-6.320962 10.064216-6.071276 9.706059-5.40715 10.955516-4.492314 11.590989-5.492084 11.56336-3.770883 11.506055-3.941775 12.45466-3.879354 12.420891-2.993171 13.033851-2.441609 13.255908-2.164293 13.091156-1.721201 13.062504-1.799996 13.947663-0.750083 13.255908 0 13.697977 0 14.227026 0 13.726629 1.721201 13.806447 1.663896 14.033621 1.442862 13.033851 3.157923 13.811564 2.942005 12.920264 3.385097 14.141068 3.742231 13.005198 4.572132 12.398378 5.270027 13.255908 5.548366 12.091386 6.042623 11.755742 6.770194 11.507078 7.42818 9.955746 6.877641 4.605901 3.913123 4.821819 2.850931 9.211802 7.820106 7.763824 7.547907 7.763824 7.820106 7.541767 8.650007 6.213515 8.376785 7.42818 8.621355 5.16258 9.29162 5.213745 8.263198 5.54325 9.592472 4.605901 8.376785 7.763824 17.690918 3.770883 9.126868 2.993171 8.485255 2.998287 9.178033 2.657526 8.650007 1.885953 7.462972 2.385327 8.734942 4.213975 15.641235 2.720971 13.670348 1.777483 13.227256 1.494027 10.648524 2.385327 16.196891 0.556679 2.550079 1.885953 2.942005 5.128811 8.371668 3.300162 5.713119 2.942005 5.877871 3.714602 6.349615 3.27151 7.627724 2.164293 7.763824 2.27174 8.541537 1.777483 8.734942 0.828878 4.298909 0.721431 5.298679 0 4.628414-0.721431 4.549619 0 5.685489-1.385557 5.520737-2.385327 10.648524-2.828418 5.40715-2.078335 6.071276 0 1.499144 0.971118 1.885953 2.828418 4.436032 12.120039 17.969257 9.592472 13.476943 4.577249 9.041934 6.213515 9.870812 5.40715 10.819416 6.241145 11.534707 6.207375 12.977569 6.991228 14.7264 3.935636 9.013281 3.634784 8.81476 3.078105 9.29162 3.078105 8.348132 2.356674 8.763594 2.385327 8.263198 2.993171 16.083304 2.385327 16.418948 1.663896 14.527878 0 7.962346 0 6.570649 0 6.042623-1.13587 7.269567-1.527796 12.585643-2.192945 11.290137-3.350304 10.227945-1.220804 4.16281-2.356674 5.042853-1.970888 3.527336-2.606361 4.293793-2.27174 2.719948-2.942005 3.549849-2.607384 2.828418-2.771113 2.413979-3.356444 1.470491-3.0208 1.465374-2.471284 0.806365-2.13564 0-1.635243 0-2.413979-0.806365-4.599761-2.27174-2.078335-1.527796-2.192945-1.550309-2.441609-2.164293-2.441609-2.441609-4.02057-4.492314-4.793166-6.320962-3.719718-6.54302-3.770883-5.213745-3.657296-6.048763-5.15644-10.784624-5.798053-11.233855-0.692778-0.385786L868.842221 704.838983l-2.356674 1.777483-1.356904 2.935865-2.27788 3.663436-3.964288 10.898211-5.962805 15.498996-7.621585 18.690688-5.741771 9.262968-5.991458 9.734712-7.184633 10.898211-7.570419 10.705829-3.87833 4.821819-4.714372 5.270027-10.841929 10.648524 0.966001 0.971118 1.442862 1.521656 5.434779 3.163039 22.518876 10.841929 9.819646 5.520737 9.370415 5.378497 9.262968 6.770194 8.29185 6.985088 3.992941 3.163039 3.0208 3.628644 3.049452 4.191462 2.606361 4.572132 1.391696 3.799536 1.663896 4.548596 0.721431 3.935636 0.801249 4.605901-0.801249 3.078105 0 3.13541-0.721431 3.214205-1.663896 2.942005-0.670266 2.329045-1.550309 2.771113-4.049223 5.599532-3.799536 4.441149-2.913353 3.350304-2.436492 2.470261-6.241145 4.548596-7.013741 3.935636-7.490601 3.770883-8.042163 3.663436-8.984628 3.492544-4.821819 1.499144-4.242627 1.164522-10.398838 2.436492-10.762111 2.305509-10.813277 2.300392-11.761881 1.913583-12.113899 0.528026-12.45466 1.494027-12.256138 0-12.948917 0-13.369495 0-13.891382-0.828878-12.948917-1.192152-13.947663-1.913583-13.868869-1.499144-14.58416-2.022053-14.141068-3.521197-13.812587-2.663666-13.697977-3.906983-14.033621-5.02034-13.806447-4.16281-7.29822-2.436492-6.429433-2.27788-4.077875-1.607614-4.077875-0.828878-5.213745 0-6.241145 0-13.254885-0.942465-6.707772-0.698918-8.626471-0.964978-5.54325 5.042853-7.570419 4.714372-10.205433 4.991688-11.369955 6.213515-6.877641 3.385097-7.212262 2.657526-15.884782 6.491855-8.626471 2.164293-9.041934 2.442632-12.56313 2.436492-7.848759 0.61296-8.343015 0.721431-8.683776 0.942465-10.091846 0.385786-9.706059 0-10.064216 0-21.496593 0-23.290449-0.385786-22.626323-2.27788-11.42726-1.607614-11.091616-1.663896-10.762111-1.607614-10.756995-2.164293-10.04068-3.242857-10.013051-2.305509-9.013281-3.601015-8.512884-3.385097-7.928576-3.799536-6.934946-4.129041-6.848988-5.048993-2.328022-2.441609-3.049452-2.935865-2.328022-2.606361-2.106987-2.942005-1.942235-2.964518-1.499144-2.970658-2.13564-6.320962-0.750083-3.27151-0.971118-3.634784 0-3.356444 0.971118-3.799536 0-3.770883 0.750083-3.742231 0-2.328022 0-5.298679 0.363274-3.992941 1.772366-4.599761 1.499144-4.577249 2.743484-5.548366 1.970888-2.164293 1.663896-2.436492 4.27128-5.270027 3.436262-2.692319 3.220345-1.885953 2.964518-2.407839 4.742001-1.499144 3.770883-2.27788 4.685719-2.436492 5.355985-1.607614 5.40715-1.663896 6.241145-1.363044 5.929036-0.801249 6.991228-0.886183 7.655354-0.585331 1.937119-0.636496 0.448208 0 0.99363-0.835018 0-0.942465-1.441838-1.885953-3.992941-1.913583-10.120498-8.734942-6.792707-5.434779-7.848759-6.877641-7.906064-7.650237-8.234545-9.819646-9.484002-11.091616-3.521197-5.991458-4.657067-6.213515-4.049223-7.14984-3.634784-7.792477-4.906753-7.462972-3.191692-8.485255-3.822049-8.485255-3.799536-9.42772-2.7486-9.041934-2.635013-11.205203-0.772596-0.414439-0.806365 0-0.414439-0.806365-0.971118 0-1.607614 0.806365-0.806365 0.414439-1.107217 1.885953-0.391926 2.27788-0.828878 2.022053-1.442862 3.413749-4.599761 8.206916-2.412956 4.991688-3.799536 4.327562-4.02057 5.236258-4.492314 5.799076-4.685719 5.15644-5.548366 4.991688-5.100158 4.657067-5.685489 3.719718-6.184863 3.879354-5.962805 2.329045-7.042393 1.777483-6.848988 0.664126-0.692778 0-0.971118 0-1.556449-0.664126-1.27197-2.771113-2.02717-1.334391-2.635013-6.457062-1.663896-3.527336-1.772366-5.042853-1.442862-5.213745-0.777713-5.105275-2.191922-11.728112-0.857531-6.906294 0-6.985088L66.867944 686.928055l0.857531-16.918321 1.363044-8.650007 1.607614-8.877181 1.442862-9.592472 2.606361-8.904811 2.935865-10.256598 2.998287-10.013051 4.049223-10.285251 3.770883-9.790994 5.26491-9.984399 4.855588-10.784624 5.962805-10.120498 6.985088-10.926864 7.127328-9.848299 7.462972-10.898211 6.207375-7.650237 7.933693-8.706289 8.371668-8.791224 3.88447-4.191462 4.742001-4.713348 6.850012-5.935176 7.042393-6.071276 11.483542-10.262738 8.650007-6.349615L194.367803 466.13337zM194.367803 466.13337" p-id="3635"></path></svg>